<svg id="Layer_1" data-name="Layer 1" xmlns="http://www.w3.org/2000/svg" viewBox="0 0 73.8 73.8"><defs><style>.cls-1{fill:#f15f22;}.cls-2{fill:#fff;}</style></defs><title>Form DK icon</title><circle class="cls-1" cx="36.9" cy="36.9" r="36.9"/><path class="cls-2" d="M41.2,29.39l0-.2a1,1,0,0,0,0-.14l0-.15,0-.13L41,28.6l0-.15,0-.08-.12-.24,0-.09,0-.05a2.61,2.61,0,0,0-.17-.28l0-.06c-.08-.12-.16-.22-.23-.31l0,0A3.65,3.65,0,0,0,40,27l0,0a4.33,4.33,0,0,0-3.06-1.28h0a4.39,4.39,0,0,0,0,8.77h.06A4.34,4.34,0,0,0,40,33.16a3.73,3.73,0,0,0,.28-.31l0,0,.22-.29,0-.08.17-.28s0,0,0,0a.16.16,0,0,0,0-.07l0,0,.11-.22s0-.06,0-.08l.06-.15.06-.17,0-.13,0-.16a.65.65,0,0,0,0-.13l0-.2,0-.15s0-.06,0-.09,0-.3,0-.45,0-.29,0-.44,0-.06,0-.09Z"/><path class="cls-2" d="M47.82,38.28a2.45,2.45,0,0,1,.22-.35l0-.06c.16-.31.42-.76.43-.79A13.92,13.92,0,0,0,50,30.68c0-.24,0-.48,0-.71s0-.21,0-.31l0-.2a1.34,1.34,0,0,0,0-.2L50,29l0-.18a2.3,2.3,0,0,0,0-.26l0-.2,0-.18c0-.1,0-.2-.05-.29a1.55,1.55,0,0,0,0-.23l0-.21c0-.08,0-.15,0-.22a2.81,2.81,0,0,1-.08-.31l-.05-.17a.94.94,0,0,0,0-.16c0-.11-.06-.22-.1-.33l0-.14c0-.05,0-.11,0-.15s-.07-.22-.11-.33l-.05-.14-.06-.14c0-.12-.09-.24-.14-.36l-.06-.13a.47.47,0,0,0,0-.1,5,5,0,0,0-.22-.47l0-.11c-.08-.15-.16-.3-.26-.47l0-.08c-.09-.15-.18-.31-.29-.48l0-.05-.32-.47s0,0,0,0l-.35-.46,0,0a5.56,5.56,0,0,0-.4-.47,5.77,5.77,0,0,0-.42-.44h0a13.07,13.07,0,0,0-9.5-3.66c-7.74,0-13.14,5.41-13.14,13.14a14.08,14.08,0,0,0,1.77,6.84l.19.36,0,0,.33.51.09.14L34.58,52.7h0l2,3.27a.57.57,0,0,0,.5.29h0a.57.57,0,0,0,.5-.29l1.9-3.27h0l8.2-14.11Zm-3.56-7.45a1.52,1.52,0,0,1,0,.21l0,.17-.06.36a2.68,2.68,0,0,1-.07.27L44,32a1.82,1.82,0,0,0-.07.25l-.12.32-.06.18a1.34,1.34,0,0,1-.07.18c-.06.13-.12.26-.19.39l-.05.12-.07.13a5.55,5.55,0,0,1-.29.48l-.08.13c-.11.17-.24.34-.36.5l-.06.07c-.14.17-.29.33-.45.5a7.42,7.42,0,0,1-5.23,2.22h-.07a7.44,7.44,0,0,1,0-14.87H37a7.4,7.4,0,0,1,5.2,2.2l0,0a6.26,6.26,0,0,1,.44.49l.05.06c.13.17.26.34.37.51l.06.09c.12.19.22.35.31.52l.07.13,0,.06c.09.17.16.31.22.45a1.46,1.46,0,0,1,.07.19l.06.17.12.32a2.5,2.5,0,0,0,.07.26l0,.18a2.68,2.68,0,0,1,.07.27l.06.36,0,.17a1.52,1.52,0,0,1,0,.21,7.15,7.15,0,0,1,0,1.51Z"/></svg>