<svg id="Layer_1" data-name="Layer 1" xmlns="http://www.w3.org/2000/svg" viewBox="0 0 73.8 73.8"><defs><style>.cls-1{fill:#f15f22;}.cls-2{fill:#fff;}</style></defs><title>Form DK icon</title><circle class="cls-1" cx="36.9" cy="36.9" r="36.9"/><path class="cls-2" d="M16.29,36.9A20.61,20.61,0,1,0,36.9,16.29,20.61,20.61,0,0,0,16.29,36.9Zm36.52,0A15.92,15.92,0,1,1,36.9,21,15.91,15.91,0,0,1,52.81,36.9Z"/><path class="cls-2" d="M36.17,24.75V36.83a.64.64,0,0,0,1.28,0V24.75a.64.64,0,0,0-1.28,0Z"/><path class="cls-2" d="M25.58,41.5c-.32.14-.57.3-.54.36s.31,0,.64-.13l11.14-4.65c.33-.13.57-.29.55-.36s-.31,0-.64.14Z"/><path class="cls-2" d="M37.12,36a.94.94,0,1,0,0,1.87H45A.94.94,0,1,0,45,36Z"/><path class="cls-2" d="M35.4,36.79a1.6,1.6,0,1,0,3.19,0,1.6,1.6,0,0,0-3.19,0Z"/></svg>