<svg id="Layer_1" data-name="Layer 1" xmlns="http://www.w3.org/2000/svg" viewBox="0 0 73.8 73.8"><defs><style>.cls-1{fill:#f15f22;}.cls-2{fill:#fff;}</style></defs><title>Form DK icon</title><circle class="cls-1" cx="36.9" cy="36.9" r="36.9"/><path class="cls-2" d="M58.91,51.47h-44a1.28,1.28,0,0,1-1.28-1.28V23.61a1.28,1.28,0,0,1,1.28-1.28h44a1.28,1.28,0,0,1,1.28,1.28V50.19A1.28,1.28,0,0,1,58.91,51.47ZM16.17,48.91H57.63v-24H16.17Z"/><path class="cls-2" d="M36.9,42.57a1.26,1.26,0,0,1-.8-.28l-22-17.68a1.28,1.28,0,0,1,1.61-2l21.21,17,21.21-17a1.28,1.28,0,1,1,1.6,2l-22,17.68A1.26,1.26,0,0,1,36.9,42.57Z"/><path class="cls-2" d="M14.89,51.47a1.28,1.28,0,0,1-.83-2.26L30.17,35.58a1.28,1.28,0,1,1,1.66,2L15.71,51.17A1.28,1.28,0,0,1,14.89,51.47Z"/><path class="cls-2" d="M58.91,51.47a1.28,1.28,0,0,1-.82-.3L42,37.53a1.28,1.28,0,1,1,1.65-2L59.74,49.21a1.28,1.28,0,0,1-.83,2.26Z"/></svg>