<svg id="Layer_1" data-name="Layer 1" xmlns="http://www.w3.org/2000/svg" viewBox="0 0 73.8 73.8"><defs><style>.cls-1{fill:#f15f22;}.cls-2{fill:#fff;}</style></defs><title>Form DK icon</title><circle class="cls-1" cx="36.9" cy="36.9" r="36.9"/><path class="cls-2" d="M29.76,34.29,30.94,33a5.43,5.43,0,0,0-.38-7.65l-2-1.8a5.42,5.42,0,0,0-7.65.38l-1.18,1.3a4.75,4.75,0,0,0-.43.55l-.06.06c-1.11,1-2.06,3.27-1.51,6.1a30.38,30.38,0,0,0,27,24.43,7.62,7.62,0,0,0,4.66-1,5.3,5.3,0,0,0,1.32-1.07L51.91,53a5.42,5.42,0,0,0-.38-7.65l-2-1.8a5.42,5.42,0,0,0-7.65.38l-1.18,1.31a5.37,5.37,0,0,0-1.12,1.9l-.1.32-.31-.13A22.77,22.77,0,0,1,27.12,36.29L27,36l.36-.11A5.39,5.39,0,0,0,29.76,34.29Z"/><path class="cls-2" d="M36.38,18.66a1.26,1.26,0,0,0,1.26,1.27,16.07,16.07,0,0,1,16,16,1.27,1.27,0,0,0,2.53,0A18.6,18.6,0,0,0,37.64,17.4,1.26,1.26,0,0,0,36.38,18.66Z"/><path class="cls-2" d="M36.17,24.84a1.26,1.26,0,0,0,1.27,1.26A10.09,10.09,0,0,1,47.51,36.18a1.27,1.27,0,1,0,2.53,0,12.61,12.61,0,0,0-12.6-12.6A1.26,1.26,0,0,0,36.17,24.84Z"/></svg>